<svg width="276" height="373" viewBox="0 0 276 373" fill="none" xmlns="http://www.w3.org/2000/svg">
<mask id="path-1-outside-1_1_10" maskUnits="userSpaceOnUse" x="-1.01739" y="-0.0175947" width="278.158" height="373.598" fill="black">
<rect fill="white" x="-1.01739" y="-0.0175947" width="278.158" height="373.598"/>
<path fill-rule="evenodd" clip-rule="evenodd" d="M18.1226 152.59C1.15107 166.732 -1.14274 191.955 12.9993 208.926L33.6316 233.687C38.6621 239.724 45.0948 243.904 52.0593 246.147L18.1425 274.409C1.17099 288.551 -1.12282 313.774 13.0192 330.745L33.6515 355.506C47.7935 372.477 73.016 374.771 89.9876 360.629L257.961 220.661C274.932 206.519 277.226 181.297 263.084 164.325L242.452 139.565C237.421 133.528 230.988 129.348 224.024 127.104L257.941 98.8422C274.912 84.7002 277.206 59.4777 263.064 42.5061L242.432 17.7457C228.29 0.77414 203.067 -1.51963 186.096 12.6224L18.1226 152.59Z"/>
</mask>
<path fill-rule="evenodd" clip-rule="evenodd" d="M18.1226 152.59C1.15107 166.732 -1.14274 191.955 12.9993 208.926L33.6316 233.687C38.6621 239.724 45.0948 243.904 52.0593 246.147L18.1425 274.409C1.17099 288.551 -1.12282 313.774 13.0192 330.745L33.6515 355.506C47.7935 372.477 73.016 374.771 89.9876 360.629L257.961 220.661C274.932 206.519 277.226 181.297 263.084 164.325L242.452 139.565C237.421 133.528 230.988 129.348 224.024 127.104L257.941 98.8422C274.912 84.7002 277.206 59.4777 263.064 42.5061L242.432 17.7457C228.29 0.77414 203.067 -1.51963 186.096 12.6224L18.1226 152.59Z" fill="white"/>
<path d="M12.9993 208.926L15.304 207.006L15.304 207.006L12.9993 208.926ZM18.1226 152.59L20.0431 154.895L20.0431 154.895L18.1226 152.59ZM33.6316 233.687L35.9363 231.766L35.9363 231.766L33.6316 233.687ZM52.0593 246.147L53.9798 248.452L58.167 244.963L52.9792 243.292L52.0593 246.147ZM18.1425 274.409L16.2221 272.105L16.2221 272.105L18.1425 274.409ZM13.0192 330.745L10.7144 332.666L10.7144 332.666L13.0192 330.745ZM33.6515 355.506L31.3467 357.426L31.3467 357.426L33.6515 355.506ZM89.9876 360.629L91.908 362.934L91.908 362.934L89.9876 360.629ZM257.961 220.661L256.04 218.356L256.04 218.356L257.961 220.661ZM263.084 164.325L260.779 166.246L263.084 164.325ZM242.452 139.565L240.147 141.485L240.147 141.485L242.452 139.565ZM224.024 127.104L222.103 124.8L217.916 128.289L223.104 129.96L224.024 127.104ZM257.941 98.8422L259.861 101.147L259.861 101.147L257.941 98.8422ZM263.064 42.5061L260.759 44.4266L260.759 44.4266L263.064 42.5061ZM242.432 17.7457L240.127 19.6662L240.127 19.6662L242.432 17.7457ZM186.096 12.6224L188.016 14.9271L188.016 14.9271L186.096 12.6224ZM15.304 207.006C2.22263 191.307 4.34441 167.976 20.0431 154.895L16.2021 150.286C-2.04227 165.488 -4.50812 192.602 10.6945 210.847L15.304 207.006ZM35.9363 231.766L15.304 207.006L10.6945 210.847L31.3268 235.607L35.9363 231.766ZM52.9792 243.292C46.5395 241.217 40.5925 237.354 35.9363 231.766L31.3268 235.607C36.7318 242.094 43.65 246.59 51.1395 249.003L52.9792 243.292ZM20.063 276.714L53.9798 248.452L50.1389 243.842L16.2221 272.105L20.063 276.714ZM15.3239 328.825C2.24256 313.126 4.36433 289.795 20.063 276.714L16.2221 272.105C-2.02235 287.307 -4.4882 314.421 10.7144 332.666L15.3239 328.825ZM35.9562 353.585L15.3239 328.825L10.7144 332.666L31.3467 357.426L35.9562 353.585ZM88.0671 358.324C72.3684 371.406 49.0375 369.284 35.9562 353.585L31.3467 357.426C46.5494 375.671 73.6636 378.136 91.908 362.934L88.0671 358.324ZM256.04 218.356L88.0671 358.324L91.908 362.934L259.881 222.966L256.04 218.356ZM260.779 166.246C273.861 181.944 271.739 205.275 256.04 218.356L259.881 222.966C278.125 207.763 280.591 180.649 265.389 162.405L260.779 166.246ZM240.147 141.485L260.779 166.246L265.389 162.405L244.756 137.644L240.147 141.485ZM223.104 129.96C229.544 132.034 235.491 135.897 240.147 141.485L244.756 137.644C239.351 131.158 232.433 126.661 224.944 124.249L223.104 129.96ZM256.02 96.5374L222.103 124.8L225.944 129.409L259.861 101.147L256.02 96.5374ZM260.759 44.4266C273.841 60.1253 271.719 83.4561 256.02 96.5374L259.861 101.147C278.105 85.9443 280.571 58.8301 265.369 40.5856L260.759 44.4266ZM240.127 19.6662L260.759 44.4266L265.369 40.5857L244.736 15.8252L240.127 19.6662ZM188.016 14.9271C203.715 1.84574 227.046 3.96749 240.127 19.6662L244.736 15.8252C229.534 -2.41921 202.42 -4.88501 184.175 10.3176L188.016 14.9271ZM20.0431 154.895L188.016 14.9271L184.175 10.3176L16.2021 150.286L20.0431 154.895Z" fill="black" mask="url(#path-1-outside-1_1_10)"/>
<path d="M74.4071 191.3C70.8753 189.412 70.8845 184.346 74.423 182.472L166.079 133.916C169.412 132.15 173.426 134.571 173.419 138.343L173.243 235.786C173.236 239.559 169.213 241.965 165.886 240.187L74.4071 191.3Z" fill="black"/>
</svg>
